<mxfile host="Electron" modified="2023-05-19T18:18:08.547Z" agent="Mozilla/5.0 (Windows NT 10.0; Win64; x64) AppleWebKit/537.36 (KHTML, like Gecko) draw.io/21.2.8 Chrome/112.0.5615.165 Electron/24.2.0 Safari/537.36" etag="9sh8pNBMJbvK41o6c9Em" version="21.2.8" type="device">
  <diagram id="C5RBs43oDa-KdzZeNtuy" name="Page-1">
    <mxGraphModel dx="4971" dy="3593" grid="1" gridSize="10" guides="1" tooltips="1" connect="1" arrows="1" fold="1" page="1" pageScale="1" pageWidth="827" pageHeight="1169" background="#F1F3F4" math="0" shadow="0">
      <root>
        <mxCell id="WIyWlLk6GJQsqaUBKTNV-0" />
        <mxCell id="WIyWlLk6GJQsqaUBKTNV-1" parent="WIyWlLk6GJQsqaUBKTNV-0" />
        <mxCell id="WIyWlLk6GJQsqaUBKTNV-11" value="&lt;b&gt;&lt;font style=&quot;font-size: 18px;&quot;&gt;End&lt;/font&gt;&lt;/b&gt;" style="rounded=0;whiteSpace=wrap;html=1;fontSize=12;glass=0;strokeWidth=3;shadow=0;labelBackgroundColor=none;movable=1;resizable=1;rotatable=1;deletable=1;editable=1;locked=0;connectable=1;" parent="WIyWlLk6GJQsqaUBKTNV-1" vertex="1">
          <mxGeometry x="130" y="2400" width="210" height="70" as="geometry" />
        </mxCell>
        <mxCell id="c8ToxAZpXp-1ihNOXtx_-9" style="edgeStyle=orthogonalEdgeStyle;rounded=0;orthogonalLoop=1;jettySize=auto;html=1;strokeWidth=3;" parent="WIyWlLk6GJQsqaUBKTNV-1" source="16ZVw8iD22CcLfQWIQzx-0" target="16ZVw8iD22CcLfQWIQzx-4" edge="1">
          <mxGeometry relative="1" as="geometry" />
        </mxCell>
        <mxCell id="16ZVw8iD22CcLfQWIQzx-0" value="&lt;b style=&quot;font-size: 15px;&quot;&gt;Type of weather&lt;br&gt;Snow/Ice/Mixed&lt;/b&gt;" style="rounded=0;whiteSpace=wrap;html=1;movable=1;resizable=1;rotatable=1;deletable=1;editable=1;locked=0;connectable=1;labelBackgroundColor=none;strokeWidth=3;" parent="WIyWlLk6GJQsqaUBKTNV-1" vertex="1">
          <mxGeometry x="170" y="-70" width="130" height="60" as="geometry" />
        </mxCell>
        <mxCell id="16ZVw8iD22CcLfQWIQzx-1" value="&lt;b&gt;&lt;font style=&quot;font-size: 16px;&quot;&gt;Mixed&lt;/font&gt;&lt;/b&gt;" style="text;html=1;align=center;verticalAlign=middle;resizable=0;points=[];autosize=1;strokeColor=none;fillColor=none;rotation=270;labelBackgroundColor=none;rounded=0;movable=0;rotatable=0;deletable=0;editable=0;locked=1;connectable=0;" parent="WIyWlLk6GJQsqaUBKTNV-1" vertex="1">
          <mxGeometry x="210" y="60" width="70" height="30" as="geometry" />
        </mxCell>
        <mxCell id="16ZVw8iD22CcLfQWIQzx-98" style="edgeStyle=orthogonalEdgeStyle;rounded=0;orthogonalLoop=1;jettySize=auto;html=1;entryX=1;entryY=0.5;entryDx=0;entryDy=0;labelBackgroundColor=none;fontColor=default;" parent="WIyWlLk6GJQsqaUBKTNV-1" source="16ZVw8iD22CcLfQWIQzx-4" target="16ZVw8iD22CcLfQWIQzx-97" edge="1">
          <mxGeometry relative="1" as="geometry" />
        </mxCell>
        <mxCell id="3A6Bn0rhpXS9urCbKn0B-45" style="edgeStyle=orthogonalEdgeStyle;rounded=0;orthogonalLoop=1;jettySize=auto;html=1;entryX=0.5;entryY=0;entryDx=0;entryDy=0;labelBackgroundColor=none;fontColor=default;strokeWidth=3;" parent="WIyWlLk6GJQsqaUBKTNV-1" source="16ZVw8iD22CcLfQWIQzx-4" target="16ZVw8iD22CcLfQWIQzx-9" edge="1">
          <mxGeometry relative="1" as="geometry" />
        </mxCell>
        <mxCell id="16ZVw8iD22CcLfQWIQzx-4" value="&lt;b style=&quot;font-size: 14px;&quot;&gt;Precipitation&lt;br&gt;Accumulation&lt;br&gt;&amp;lt;= 3.5 cm&amp;nbsp;&lt;/b&gt;" style="rhombus;whiteSpace=wrap;html=1;movable=1;resizable=1;rotatable=1;deletable=1;editable=1;locked=0;connectable=1;labelBackgroundColor=none;rounded=0;strokeWidth=3;" parent="WIyWlLk6GJQsqaUBKTNV-1" vertex="1">
          <mxGeometry x="170" y="160" width="130" height="130" as="geometry" />
        </mxCell>
        <mxCell id="3A6Bn0rhpXS9urCbKn0B-36" style="edgeStyle=orthogonalEdgeStyle;rounded=0;orthogonalLoop=1;jettySize=auto;html=1;labelBackgroundColor=none;fontColor=default;strokeWidth=3;" parent="WIyWlLk6GJQsqaUBKTNV-1" source="16ZVw8iD22CcLfQWIQzx-9" edge="1">
          <mxGeometry relative="1" as="geometry">
            <mxPoint x="420" y="425" as="targetPoint" />
          </mxGeometry>
        </mxCell>
        <mxCell id="3A6Bn0rhpXS9urCbKn0B-46" style="edgeStyle=orthogonalEdgeStyle;rounded=0;orthogonalLoop=1;jettySize=auto;html=1;labelBackgroundColor=none;fontColor=default;strokeWidth=3;" parent="WIyWlLk6GJQsqaUBKTNV-1" source="16ZVw8iD22CcLfQWIQzx-9" target="16ZVw8iD22CcLfQWIQzx-12" edge="1">
          <mxGeometry relative="1" as="geometry" />
        </mxCell>
        <mxCell id="16ZVw8iD22CcLfQWIQzx-9" value="&lt;b style=&quot;font-size: 14px;&quot;&gt;Precipitation&lt;br&gt;Accumulation&lt;br&gt;&amp;gt;3.5 - 5.75 cm&lt;/b&gt;" style="rhombus;whiteSpace=wrap;html=1;movable=1;resizable=1;rotatable=1;deletable=1;editable=1;locked=0;connectable=1;labelBackgroundColor=none;rounded=0;strokeWidth=3;" parent="WIyWlLk6GJQsqaUBKTNV-1" vertex="1">
          <mxGeometry x="170" y="360" width="130" height="130" as="geometry" />
        </mxCell>
        <mxCell id="16ZVw8iD22CcLfQWIQzx-72" style="edgeStyle=orthogonalEdgeStyle;rounded=0;orthogonalLoop=1;jettySize=auto;html=1;labelBackgroundColor=none;fontColor=default;strokeWidth=3;" parent="WIyWlLk6GJQsqaUBKTNV-1" source="16ZVw8iD22CcLfQWIQzx-13" edge="1">
          <mxGeometry relative="1" as="geometry">
            <mxPoint x="410" y="1234" as="targetPoint" />
          </mxGeometry>
        </mxCell>
        <mxCell id="Y9ipaWIojz4dRAJT3SAS-7" style="edgeStyle=orthogonalEdgeStyle;rounded=0;orthogonalLoop=1;jettySize=auto;html=1;fontFamily=Helvetica;fontSize=12;fontColor=default;strokeWidth=3;" parent="WIyWlLk6GJQsqaUBKTNV-1" source="16ZVw8iD22CcLfQWIQzx-13" edge="1">
          <mxGeometry relative="1" as="geometry">
            <mxPoint x="235" y="1770.0000000000005" as="targetPoint" />
          </mxGeometry>
        </mxCell>
        <mxCell id="16ZVw8iD22CcLfQWIQzx-13" value="&lt;b style=&quot;font-size: 14px;&quot;&gt;Precipitation&lt;br&gt;Accumulation&lt;br&gt;&amp;gt;16.5 - 40.0 cm&lt;/b&gt;" style="rhombus;whiteSpace=wrap;html=1;movable=1;resizable=1;rotatable=1;deletable=1;editable=1;locked=0;connectable=1;labelBackgroundColor=none;rounded=0;strokeWidth=3;" parent="WIyWlLk6GJQsqaUBKTNV-1" vertex="1">
          <mxGeometry x="170" y="1170" width="130" height="130" as="geometry" />
        </mxCell>
        <mxCell id="16ZVw8iD22CcLfQWIQzx-19" style="edgeStyle=orthogonalEdgeStyle;rounded=0;orthogonalLoop=1;jettySize=auto;html=1;labelBackgroundColor=none;fontColor=default;" parent="WIyWlLk6GJQsqaUBKTNV-1" source="16ZVw8iD22CcLfQWIQzx-17" edge="1">
          <mxGeometry relative="1" as="geometry">
            <mxPoint x="474" y="500" as="targetPoint" />
          </mxGeometry>
        </mxCell>
        <mxCell id="3A6Bn0rhpXS9urCbKn0B-37" style="edgeStyle=orthogonalEdgeStyle;rounded=0;orthogonalLoop=1;jettySize=auto;html=1;entryX=0;entryY=0.5;entryDx=0;entryDy=0;labelBackgroundColor=none;fontColor=default;strokeWidth=3;" parent="WIyWlLk6GJQsqaUBKTNV-1" source="16ZVw8iD22CcLfQWIQzx-17" target="16ZVw8iD22CcLfQWIQzx-21" edge="1">
          <mxGeometry relative="1" as="geometry" />
        </mxCell>
        <mxCell id="16ZVw8iD22CcLfQWIQzx-17" value="&lt;b style=&quot;font-size: 16px;&quot;&gt;Temperature&lt;br&gt;&amp;lt; -15.0&amp;nbsp;&lt;/b&gt;" style="rounded=0;whiteSpace=wrap;html=1;movable=1;resizable=1;rotatable=1;deletable=1;editable=1;locked=0;connectable=1;labelBackgroundColor=none;strokeWidth=3;" parent="WIyWlLk6GJQsqaUBKTNV-1" vertex="1">
          <mxGeometry x="415" y="390" width="120" height="60" as="geometry" />
        </mxCell>
        <mxCell id="3A6Bn0rhpXS9urCbKn0B-83" style="edgeStyle=orthogonalEdgeStyle;rounded=0;orthogonalLoop=1;jettySize=auto;html=1;entryX=0;entryY=0.5;entryDx=0;entryDy=0;labelBackgroundColor=none;fontColor=default;strokeWidth=3;" parent="WIyWlLk6GJQsqaUBKTNV-1" source="16ZVw8iD22CcLfQWIQzx-20" target="16ZVw8iD22CcLfQWIQzx-44" edge="1">
          <mxGeometry relative="1" as="geometry">
            <Array as="points">
              <mxPoint x="480" y="680" />
              <mxPoint x="990" y="680" />
              <mxPoint x="990" y="900" />
            </Array>
          </mxGeometry>
        </mxCell>
        <mxCell id="16ZVw8iD22CcLfQWIQzx-20" value="&lt;font style=&quot;font-size: 15px;&quot;&gt;&lt;b&gt;# of Sand Trucks&amp;nbsp;&lt;br&gt;1 (Light)&lt;/b&gt;&lt;/font&gt;" style="rounded=0;whiteSpace=wrap;html=1;movable=1;resizable=1;rotatable=1;deletable=1;editable=1;locked=0;connectable=1;labelBackgroundColor=none;strokeWidth=3;" parent="WIyWlLk6GJQsqaUBKTNV-1" vertex="1">
          <mxGeometry x="420" y="500" width="130" height="60" as="geometry" />
        </mxCell>
        <mxCell id="16ZVw8iD22CcLfQWIQzx-22" style="edgeStyle=orthogonalEdgeStyle;rounded=0;orthogonalLoop=1;jettySize=auto;html=1;labelBackgroundColor=none;fontColor=default;strokeWidth=3;" parent="WIyWlLk6GJQsqaUBKTNV-1" edge="1">
          <mxGeometry relative="1" as="geometry">
            <mxPoint x="802" y="420" as="targetPoint" />
            <mxPoint x="742" y="420" as="sourcePoint" />
          </mxGeometry>
        </mxCell>
        <mxCell id="16ZVw8iD22CcLfQWIQzx-47" style="edgeStyle=orthogonalEdgeStyle;rounded=0;orthogonalLoop=1;jettySize=auto;html=1;exitX=0.5;exitY=1;exitDx=0;exitDy=0;entryX=0.5;entryY=0;entryDx=0;entryDy=0;labelBackgroundColor=none;fontColor=default;" parent="WIyWlLk6GJQsqaUBKTNV-1" source="16ZVw8iD22CcLfQWIQzx-21" edge="1">
          <mxGeometry relative="1" as="geometry">
            <mxPoint x="680" y="500" as="targetPoint" />
          </mxGeometry>
        </mxCell>
        <mxCell id="16ZVw8iD22CcLfQWIQzx-21" value="&lt;b style=&quot;font-size: 16px;&quot;&gt;Temperature&lt;br&gt;-15.0 to -7.0&lt;/b&gt;" style="rounded=0;whiteSpace=wrap;html=1;movable=1;resizable=1;rotatable=1;deletable=1;editable=1;locked=0;connectable=1;labelBackgroundColor=none;strokeWidth=3;" parent="WIyWlLk6GJQsqaUBKTNV-1" vertex="1">
          <mxGeometry x="620" y="390" width="120" height="60" as="geometry" />
        </mxCell>
        <mxCell id="16ZVw8iD22CcLfQWIQzx-154" style="edgeStyle=orthogonalEdgeStyle;rounded=0;orthogonalLoop=1;jettySize=auto;html=1;entryX=0.75;entryY=0;entryDx=0;entryDy=0;labelBackgroundColor=none;fontColor=default;strokeWidth=3;" parent="WIyWlLk6GJQsqaUBKTNV-1" source="16ZVw8iD22CcLfQWIQzx-23" target="16ZVw8iD22CcLfQWIQzx-44" edge="1">
          <mxGeometry relative="1" as="geometry" />
        </mxCell>
        <mxCell id="16ZVw8iD22CcLfQWIQzx-23" value="&lt;font style=&quot;font-size: 15px;&quot;&gt;&lt;b&gt;Temperature&lt;br&gt;&amp;gt; -7.0&lt;/b&gt;&lt;/font&gt;" style="rounded=0;whiteSpace=wrap;html=1;movable=1;resizable=1;rotatable=1;deletable=1;editable=1;locked=0;connectable=1;labelBackgroundColor=none;strokeWidth=3;" parent="WIyWlLk6GJQsqaUBKTNV-1" vertex="1">
          <mxGeometry x="800" y="390" width="120" height="60" as="geometry" />
        </mxCell>
        <mxCell id="16ZVw8iD22CcLfQWIQzx-73" style="edgeStyle=orthogonalEdgeStyle;rounded=0;orthogonalLoop=1;jettySize=auto;html=1;labelBackgroundColor=none;fontColor=default;strokeWidth=3;" parent="WIyWlLk6GJQsqaUBKTNV-1" source="16ZVw8iD22CcLfQWIQzx-24" edge="1">
          <mxGeometry relative="1" as="geometry">
            <mxPoint x="610" y="1234" as="targetPoint" />
          </mxGeometry>
        </mxCell>
        <mxCell id="16ZVw8iD22CcLfQWIQzx-83" style="edgeStyle=orthogonalEdgeStyle;rounded=0;orthogonalLoop=1;jettySize=auto;html=1;labelBackgroundColor=none;fontColor=default;strokeWidth=3;" parent="WIyWlLk6GJQsqaUBKTNV-1" source="16ZVw8iD22CcLfQWIQzx-24" edge="1">
          <mxGeometry relative="1" as="geometry">
            <mxPoint x="474" y="1370" as="targetPoint" />
          </mxGeometry>
        </mxCell>
        <mxCell id="16ZVw8iD22CcLfQWIQzx-24" value="&lt;b style=&quot;font-size: 15px;&quot;&gt;Temperature&lt;br&gt;&amp;lt; -15.0&lt;/b&gt;" style="rounded=0;whiteSpace=wrap;html=1;movable=1;resizable=1;rotatable=1;deletable=1;editable=1;locked=0;connectable=1;labelBackgroundColor=none;strokeWidth=3;" parent="WIyWlLk6GJQsqaUBKTNV-1" vertex="1">
          <mxGeometry x="414" y="1204" width="120" height="60" as="geometry" />
        </mxCell>
        <mxCell id="16ZVw8iD22CcLfQWIQzx-91" style="edgeStyle=orthogonalEdgeStyle;rounded=0;orthogonalLoop=1;jettySize=auto;html=1;labelBackgroundColor=none;fontColor=default;strokeWidth=3;" parent="WIyWlLk6GJQsqaUBKTNV-1" source="16ZVw8iD22CcLfQWIQzx-25" edge="1">
          <mxGeometry relative="1" as="geometry">
            <mxPoint x="860" y="1380" as="targetPoint" />
          </mxGeometry>
        </mxCell>
        <mxCell id="16ZVw8iD22CcLfQWIQzx-25" value="&lt;font style=&quot;font-size: 15px;&quot;&gt;&lt;b&gt;Temperature&lt;br&gt;&amp;gt; -7.0&lt;/b&gt;&lt;/font&gt;" style="rounded=0;whiteSpace=wrap;html=1;movable=1;resizable=1;rotatable=1;deletable=1;editable=1;locked=0;connectable=1;labelBackgroundColor=none;strokeWidth=3;" parent="WIyWlLk6GJQsqaUBKTNV-1" vertex="1">
          <mxGeometry x="800" y="1204" width="120" height="60" as="geometry" />
        </mxCell>
        <mxCell id="16ZVw8iD22CcLfQWIQzx-132" style="edgeStyle=orthogonalEdgeStyle;rounded=0;orthogonalLoop=1;jettySize=auto;html=1;labelBackgroundColor=none;fontColor=default;strokeWidth=3;" parent="WIyWlLk6GJQsqaUBKTNV-1" source="16ZVw8iD22CcLfQWIQzx-26" edge="1">
          <mxGeometry relative="1" as="geometry">
            <mxPoint x="830" y="778" as="targetPoint" />
          </mxGeometry>
        </mxCell>
        <mxCell id="16ZVw8iD22CcLfQWIQzx-160" style="edgeStyle=orthogonalEdgeStyle;rounded=0;orthogonalLoop=1;jettySize=auto;html=1;entryX=0.5;entryY=0;entryDx=0;entryDy=0;labelBackgroundColor=none;fontColor=default;strokeWidth=3;" parent="WIyWlLk6GJQsqaUBKTNV-1" source="16ZVw8iD22CcLfQWIQzx-26" target="16ZVw8iD22CcLfQWIQzx-93" edge="1">
          <mxGeometry relative="1" as="geometry" />
        </mxCell>
        <mxCell id="16ZVw8iD22CcLfQWIQzx-26" value="&lt;b style=&quot;font-size: 15px;&quot;&gt;Temperature&lt;br&gt;-15.0 to -7.0&lt;/b&gt;" style="rounded=0;whiteSpace=wrap;html=1;movable=1;resizable=1;rotatable=1;deletable=1;editable=1;locked=0;connectable=1;labelBackgroundColor=none;strokeWidth=3;" parent="WIyWlLk6GJQsqaUBKTNV-1" vertex="1">
          <mxGeometry x="620" y="747.5" width="120" height="60" as="geometry" />
        </mxCell>
        <mxCell id="16ZVw8iD22CcLfQWIQzx-60" style="edgeStyle=orthogonalEdgeStyle;rounded=0;orthogonalLoop=1;jettySize=auto;html=1;entryX=0;entryY=0.5;entryDx=0;entryDy=0;labelBackgroundColor=none;fontColor=default;strokeWidth=3;" parent="WIyWlLk6GJQsqaUBKTNV-1" source="16ZVw8iD22CcLfQWIQzx-28" target="16ZVw8iD22CcLfQWIQzx-26" edge="1">
          <mxGeometry relative="1" as="geometry">
            <mxPoint x="610" y="745" as="targetPoint" />
          </mxGeometry>
        </mxCell>
        <mxCell id="16ZVw8iD22CcLfQWIQzx-162" style="edgeStyle=orthogonalEdgeStyle;rounded=0;orthogonalLoop=1;jettySize=auto;html=1;exitX=0.5;exitY=1;exitDx=0;exitDy=0;labelBackgroundColor=none;fontColor=default;strokeWidth=3;" parent="WIyWlLk6GJQsqaUBKTNV-1" source="16ZVw8iD22CcLfQWIQzx-28" target="16ZVw8iD22CcLfQWIQzx-66" edge="1">
          <mxGeometry relative="1" as="geometry" />
        </mxCell>
        <mxCell id="16ZVw8iD22CcLfQWIQzx-28" value="&lt;font style=&quot;font-size: 15px;&quot;&gt;&lt;b&gt;Temperature&lt;br&gt;&amp;lt; -15.0&lt;/b&gt;&lt;/font&gt;" style="rounded=0;whiteSpace=wrap;html=1;movable=1;resizable=1;rotatable=1;deletable=1;editable=1;locked=0;connectable=1;labelBackgroundColor=none;strokeWidth=3;" parent="WIyWlLk6GJQsqaUBKTNV-1" vertex="1">
          <mxGeometry x="414" y="745" width="120" height="65" as="geometry" />
        </mxCell>
        <mxCell id="16ZVw8iD22CcLfQWIQzx-74" style="edgeStyle=orthogonalEdgeStyle;rounded=0;orthogonalLoop=1;jettySize=auto;html=1;labelBackgroundColor=none;fontColor=default;strokeWidth=3;" parent="WIyWlLk6GJQsqaUBKTNV-1" source="16ZVw8iD22CcLfQWIQzx-30" edge="1">
          <mxGeometry relative="1" as="geometry">
            <mxPoint x="800" y="1234" as="targetPoint" />
          </mxGeometry>
        </mxCell>
        <mxCell id="16ZVw8iD22CcLfQWIQzx-90" style="edgeStyle=orthogonalEdgeStyle;rounded=0;orthogonalLoop=1;jettySize=auto;html=1;labelBackgroundColor=none;fontColor=default;strokeWidth=3;" parent="WIyWlLk6GJQsqaUBKTNV-1" source="16ZVw8iD22CcLfQWIQzx-30" target="16ZVw8iD22CcLfQWIQzx-86" edge="1">
          <mxGeometry relative="1" as="geometry" />
        </mxCell>
        <mxCell id="16ZVw8iD22CcLfQWIQzx-30" value="&lt;font style=&quot;font-size: 15px;&quot;&gt;&lt;b&gt;Temperature&lt;br&gt;-15.0 to -7.0&lt;/b&gt;&lt;/font&gt;" style="rounded=0;whiteSpace=wrap;html=1;movable=1;resizable=1;rotatable=1;deletable=1;editable=1;locked=0;connectable=1;labelBackgroundColor=none;strokeWidth=3;" parent="WIyWlLk6GJQsqaUBKTNV-1" vertex="1">
          <mxGeometry x="615" y="1204" width="120" height="60" as="geometry" />
        </mxCell>
        <mxCell id="16ZVw8iD22CcLfQWIQzx-133" style="edgeStyle=orthogonalEdgeStyle;rounded=0;orthogonalLoop=1;jettySize=auto;html=1;entryX=0.5;entryY=0;entryDx=0;entryDy=0;labelBackgroundColor=none;fontColor=default;strokeWidth=3;" parent="WIyWlLk6GJQsqaUBKTNV-1" source="16ZVw8iD22CcLfQWIQzx-31" target="16ZVw8iD22CcLfQWIQzx-115" edge="1">
          <mxGeometry relative="1" as="geometry" />
        </mxCell>
        <mxCell id="16ZVw8iD22CcLfQWIQzx-31" value="&lt;b style=&quot;font-size: 16px;&quot;&gt;Temperature&lt;br&gt;&amp;gt; -7.0&lt;/b&gt;" style="rounded=0;whiteSpace=wrap;html=1;movable=1;resizable=1;rotatable=1;deletable=1;editable=1;locked=0;connectable=1;labelBackgroundColor=none;strokeWidth=3;" parent="WIyWlLk6GJQsqaUBKTNV-1" vertex="1">
          <mxGeometry x="830" y="747.5" width="120" height="60" as="geometry" />
        </mxCell>
        <mxCell id="3A6Bn0rhpXS9urCbKn0B-85" style="edgeStyle=orthogonalEdgeStyle;rounded=0;orthogonalLoop=1;jettySize=auto;html=1;entryX=0.25;entryY=0;entryDx=0;entryDy=0;labelBackgroundColor=none;fontColor=default;strokeWidth=3;" parent="WIyWlLk6GJQsqaUBKTNV-1" source="16ZVw8iD22CcLfQWIQzx-41" target="16ZVw8iD22CcLfQWIQzx-44" edge="1">
          <mxGeometry relative="1" as="geometry">
            <Array as="points">
              <mxPoint x="680" y="630" />
              <mxPoint x="1140" y="630" />
            </Array>
          </mxGeometry>
        </mxCell>
        <mxCell id="16ZVw8iD22CcLfQWIQzx-41" value="&lt;b style=&quot;font-size: 15px;&quot;&gt;# of Salt Trucks&lt;br&gt;1 (Light)&lt;/b&gt;" style="rounded=0;whiteSpace=wrap;html=1;movable=1;resizable=1;rotatable=1;deletable=1;editable=1;locked=0;connectable=1;labelBackgroundColor=none;strokeWidth=3;" parent="WIyWlLk6GJQsqaUBKTNV-1" vertex="1">
          <mxGeometry x="620" y="500" width="120" height="60" as="geometry" />
        </mxCell>
        <mxCell id="Y9ipaWIojz4dRAJT3SAS-11" style="edgeStyle=orthogonalEdgeStyle;rounded=0;orthogonalLoop=1;jettySize=auto;html=1;entryX=0.5;entryY=1;entryDx=0;entryDy=0;fontFamily=Helvetica;fontSize=12;fontColor=default;strokeWidth=3;" parent="WIyWlLk6GJQsqaUBKTNV-1" source="16ZVw8iD22CcLfQWIQzx-44" target="WIyWlLk6GJQsqaUBKTNV-11" edge="1">
          <mxGeometry relative="1" as="geometry">
            <Array as="points">
              <mxPoint x="1310" y="900" />
              <mxPoint x="1310" y="2490" />
              <mxPoint x="235" y="2490" />
            </Array>
          </mxGeometry>
        </mxCell>
        <mxCell id="16ZVw8iD22CcLfQWIQzx-44" value="&lt;font style=&quot;font-size: 15px;&quot;&gt;&lt;b&gt;# of&lt;br&gt;Plow Trucks&lt;br&gt;1&lt;/b&gt;&lt;/font&gt;" style="rounded=0;whiteSpace=wrap;html=1;movable=1;resizable=1;rotatable=1;deletable=1;editable=1;locked=0;connectable=1;labelBackgroundColor=none;strokeWidth=3;" parent="WIyWlLk6GJQsqaUBKTNV-1" vertex="1">
          <mxGeometry x="1110" y="870" width="120" height="60" as="geometry" />
        </mxCell>
        <mxCell id="c8ToxAZpXp-1ihNOXtx_-3" style="edgeStyle=orthogonalEdgeStyle;rounded=0;orthogonalLoop=1;jettySize=auto;html=1;strokeWidth=3;" parent="WIyWlLk6GJQsqaUBKTNV-1" source="16ZVw8iD22CcLfQWIQzx-12" target="16ZVw8iD22CcLfQWIQzx-13" edge="1">
          <mxGeometry relative="1" as="geometry" />
        </mxCell>
        <mxCell id="Y9ipaWIojz4dRAJT3SAS-5" style="edgeStyle=orthogonalEdgeStyle;rounded=0;orthogonalLoop=1;jettySize=auto;html=1;strokeWidth=3;" parent="WIyWlLk6GJQsqaUBKTNV-1" source="16ZVw8iD22CcLfQWIQzx-12" target="16ZVw8iD22CcLfQWIQzx-28" edge="1">
          <mxGeometry relative="1" as="geometry" />
        </mxCell>
        <mxCell id="16ZVw8iD22CcLfQWIQzx-12" value="&lt;b style=&quot;font-size: 14px;&quot;&gt;Precipitation&lt;br&gt;Accumulation&lt;br&gt;&amp;gt;5.75 - 16.5 cm&lt;/b&gt;" style="rhombus;whiteSpace=wrap;html=1;movable=1;resizable=1;rotatable=1;deletable=1;editable=1;locked=0;connectable=1;labelBackgroundColor=none;rounded=0;strokeWidth=3;" parent="WIyWlLk6GJQsqaUBKTNV-1" vertex="1">
          <mxGeometry x="170" y="712.5" width="130" height="130" as="geometry" />
        </mxCell>
        <mxCell id="3A6Bn0rhpXS9urCbKn0B-87" style="edgeStyle=orthogonalEdgeStyle;rounded=0;orthogonalLoop=1;jettySize=auto;html=1;entryX=1;entryY=1;entryDx=0;entryDy=0;labelBackgroundColor=none;fontColor=default;strokeWidth=3;" parent="WIyWlLk6GJQsqaUBKTNV-1" source="16ZVw8iD22CcLfQWIQzx-66" target="16ZVw8iD22CcLfQWIQzx-44" edge="1">
          <mxGeometry relative="1" as="geometry">
            <Array as="points">
              <mxPoint x="474" y="1110" />
              <mxPoint x="1230" y="1110" />
            </Array>
          </mxGeometry>
        </mxCell>
        <mxCell id="16ZVw8iD22CcLfQWIQzx-66" value="&lt;font style=&quot;font-size: 15px;&quot;&gt;&lt;b&gt;# of Sand Trucks&lt;br&gt;1 (Heavy)&lt;/b&gt;&lt;/font&gt;" style="rounded=0;whiteSpace=wrap;html=1;movable=1;resizable=1;rotatable=1;deletable=1;editable=1;locked=0;connectable=1;labelBackgroundColor=none;strokeWidth=3;" parent="WIyWlLk6GJQsqaUBKTNV-1" vertex="1">
          <mxGeometry x="412" y="890" width="126" height="60" as="geometry" />
        </mxCell>
        <mxCell id="Y9ipaWIojz4dRAJT3SAS-10" style="edgeStyle=orthogonalEdgeStyle;rounded=0;orthogonalLoop=1;jettySize=auto;html=1;fontFamily=Helvetica;fontSize=12;fontColor=default;entryX=0.5;entryY=0;entryDx=0;entryDy=0;strokeWidth=3;" parent="WIyWlLk6GJQsqaUBKTNV-1" source="16ZVw8iD22CcLfQWIQzx-76" target="WIyWlLk6GJQsqaUBKTNV-11" edge="1">
          <mxGeometry relative="1" as="geometry">
            <mxPoint x="235" y="2370" as="targetPoint" />
          </mxGeometry>
        </mxCell>
        <mxCell id="16ZVw8iD22CcLfQWIQzx-76" value="&lt;b&gt;&lt;font style=&quot;font-size: 15px;&quot;&gt;State of emergency (Organize army and other jurisdiction support)&amp;nbsp;&lt;/font&gt;&lt;/b&gt;" style="rounded=0;whiteSpace=wrap;html=1;movable=1;resizable=1;rotatable=1;deletable=1;editable=1;locked=0;connectable=1;labelBackgroundColor=none;strokeWidth=3;" parent="WIyWlLk6GJQsqaUBKTNV-1" vertex="1">
          <mxGeometry x="140" y="2200" width="190" height="60" as="geometry" />
        </mxCell>
        <mxCell id="3A6Bn0rhpXS9urCbKn0B-113" style="edgeStyle=orthogonalEdgeStyle;rounded=0;orthogonalLoop=1;jettySize=auto;html=1;entryX=0.5;entryY=0;entryDx=0;entryDy=0;labelBackgroundColor=none;fontColor=default;strokeWidth=3;" parent="WIyWlLk6GJQsqaUBKTNV-1" source="16ZVw8iD22CcLfQWIQzx-86" target="16ZVw8iD22CcLfQWIQzx-167" edge="1">
          <mxGeometry relative="1" as="geometry" />
        </mxCell>
        <mxCell id="16ZVw8iD22CcLfQWIQzx-86" value="&lt;b style=&quot;font-size: 15px;&quot;&gt;# of Salt Trucks&lt;br&gt;1 (Heavy)&lt;/b&gt;" style="rounded=0;whiteSpace=wrap;html=1;movable=1;resizable=1;rotatable=1;deletable=1;editable=1;locked=0;connectable=1;labelBackgroundColor=none;strokeWidth=3;" parent="WIyWlLk6GJQsqaUBKTNV-1" vertex="1">
          <mxGeometry x="615" y="1380" width="120" height="60" as="geometry" />
        </mxCell>
        <mxCell id="3A6Bn0rhpXS9urCbKn0B-106" style="edgeStyle=orthogonalEdgeStyle;rounded=0;orthogonalLoop=1;jettySize=auto;html=1;entryX=0.108;entryY=0.014;entryDx=0;entryDy=0;entryPerimeter=0;labelBackgroundColor=none;fontColor=default;strokeWidth=3;" parent="WIyWlLk6GJQsqaUBKTNV-1" source="16ZVw8iD22CcLfQWIQzx-89" target="16ZVw8iD22CcLfQWIQzx-167" edge="1">
          <mxGeometry relative="1" as="geometry" />
        </mxCell>
        <mxCell id="16ZVw8iD22CcLfQWIQzx-89" value="&lt;b style=&quot;font-size: 15px;&quot;&gt;# of Sand Trucks&lt;br&gt;1 (Heavy)&lt;/b&gt;" style="rounded=0;whiteSpace=wrap;html=1;movable=1;resizable=1;rotatable=1;deletable=1;editable=1;locked=0;connectable=1;labelBackgroundColor=none;strokeWidth=3;" parent="WIyWlLk6GJQsqaUBKTNV-1" vertex="1">
          <mxGeometry x="412" y="1370" width="126" height="60" as="geometry" />
        </mxCell>
        <mxCell id="3A6Bn0rhpXS9urCbKn0B-88" style="edgeStyle=orthogonalEdgeStyle;rounded=0;orthogonalLoop=1;jettySize=auto;html=1;entryX=0.5;entryY=1;entryDx=0;entryDy=0;labelBackgroundColor=none;fontColor=default;strokeWidth=3;" parent="WIyWlLk6GJQsqaUBKTNV-1" source="16ZVw8iD22CcLfQWIQzx-93" target="16ZVw8iD22CcLfQWIQzx-44" edge="1">
          <mxGeometry relative="1" as="geometry">
            <Array as="points">
              <mxPoint x="680" y="1080" />
              <mxPoint x="1170" y="1080" />
            </Array>
          </mxGeometry>
        </mxCell>
        <mxCell id="16ZVw8iD22CcLfQWIQzx-93" value="&lt;b style=&quot;font-size: 15px;&quot;&gt;# of Salt Trucks&lt;br&gt;1 (Heavy)&lt;/b&gt;" style="rounded=0;whiteSpace=wrap;html=1;movable=1;resizable=1;rotatable=1;deletable=1;editable=1;locked=0;connectable=1;labelBackgroundColor=none;strokeWidth=3;" parent="WIyWlLk6GJQsqaUBKTNV-1" vertex="1">
          <mxGeometry x="620" y="880" width="120" height="60" as="geometry" />
        </mxCell>
        <mxCell id="c8ToxAZpXp-1ihNOXtx_-0" style="edgeStyle=orthogonalEdgeStyle;rounded=0;orthogonalLoop=1;jettySize=auto;html=1;entryX=0.872;entryY=0.022;entryDx=0;entryDy=0;entryPerimeter=0;strokeWidth=3;" parent="WIyWlLk6GJQsqaUBKTNV-1" source="16ZVw8iD22CcLfQWIQzx-94" target="16ZVw8iD22CcLfQWIQzx-167" edge="1">
          <mxGeometry relative="1" as="geometry" />
        </mxCell>
        <mxCell id="16ZVw8iD22CcLfQWIQzx-94" value="&lt;b style=&quot;font-size: 15px;&quot;&gt;# of Salt Trucks&lt;br&gt;1 (Light)&lt;/b&gt;" style="rounded=0;whiteSpace=wrap;html=1;movable=1;resizable=1;rotatable=1;deletable=1;editable=1;locked=0;connectable=1;labelBackgroundColor=none;strokeWidth=3;" parent="WIyWlLk6GJQsqaUBKTNV-1" vertex="1">
          <mxGeometry x="805" y="1380" width="120" height="60" as="geometry" />
        </mxCell>
        <mxCell id="c8ToxAZpXp-1ihNOXtx_-14" style="edgeStyle=orthogonalEdgeStyle;rounded=0;orthogonalLoop=1;jettySize=auto;html=1;entryX=0;entryY=0.5;entryDx=0;entryDy=0;strokeWidth=3;" parent="WIyWlLk6GJQsqaUBKTNV-1" source="16ZVw8iD22CcLfQWIQzx-97" target="WIyWlLk6GJQsqaUBKTNV-11" edge="1">
          <mxGeometry relative="1" as="geometry">
            <Array as="points">
              <mxPoint x="-40" y="2435" />
            </Array>
          </mxGeometry>
        </mxCell>
        <mxCell id="16ZVw8iD22CcLfQWIQzx-97" value="&lt;b&gt;&lt;font style=&quot;font-size: 15px;&quot;&gt;No Action Required&lt;/font&gt;&lt;/b&gt;" style="rounded=0;whiteSpace=wrap;html=1;movable=1;resizable=1;rotatable=1;deletable=1;editable=1;locked=0;connectable=1;labelBackgroundColor=none;strokeWidth=3;" parent="WIyWlLk6GJQsqaUBKTNV-1" vertex="1">
          <mxGeometry x="-110" y="195" width="120" height="60" as="geometry" />
        </mxCell>
        <mxCell id="3A6Bn0rhpXS9urCbKn0B-95" style="edgeStyle=orthogonalEdgeStyle;rounded=0;orthogonalLoop=1;jettySize=auto;html=1;entryX=0.25;entryY=1;entryDx=0;entryDy=0;labelBackgroundColor=none;fontColor=default;strokeWidth=3;" parent="WIyWlLk6GJQsqaUBKTNV-1" source="16ZVw8iD22CcLfQWIQzx-115" target="16ZVw8iD22CcLfQWIQzx-44" edge="1">
          <mxGeometry relative="1" as="geometry">
            <Array as="points">
              <mxPoint x="890" y="1040" />
              <mxPoint x="1140" y="1040" />
            </Array>
          </mxGeometry>
        </mxCell>
        <mxCell id="16ZVw8iD22CcLfQWIQzx-115" value="&lt;b style=&quot;font-size: 15px;&quot;&gt;# of Salt Trucks&lt;br&gt;1 (Normal)&lt;/b&gt;" style="rounded=0;whiteSpace=wrap;html=1;movable=1;resizable=1;rotatable=1;deletable=1;editable=1;locked=0;connectable=1;labelBackgroundColor=none;strokeWidth=3;" parent="WIyWlLk6GJQsqaUBKTNV-1" vertex="1">
          <mxGeometry x="830" y="880" width="120" height="60" as="geometry" />
        </mxCell>
        <mxCell id="c8ToxAZpXp-1ihNOXtx_-13" style="edgeStyle=orthogonalEdgeStyle;rounded=0;orthogonalLoop=1;jettySize=auto;html=1;entryX=1;entryY=0.5;entryDx=0;entryDy=0;strokeWidth=3;" parent="WIyWlLk6GJQsqaUBKTNV-1" source="16ZVw8iD22CcLfQWIQzx-167" target="WIyWlLk6GJQsqaUBKTNV-11" edge="1">
          <mxGeometry relative="1" as="geometry">
            <Array as="points">
              <mxPoint x="680" y="2435" />
            </Array>
          </mxGeometry>
        </mxCell>
        <mxCell id="16ZVw8iD22CcLfQWIQzx-167" value="&lt;b style=&quot;font-size: 15px;&quot;&gt;# of&lt;br&gt;Plow Trucks&lt;br&gt;2&lt;/b&gt;" style="whiteSpace=wrap;html=1;movable=1;resizable=1;rotatable=1;deletable=1;editable=1;locked=0;connectable=1;labelBackgroundColor=none;rounded=0;strokeWidth=3;" parent="WIyWlLk6GJQsqaUBKTNV-1" vertex="1">
          <mxGeometry x="420" y="1640" width="510" height="100" as="geometry" />
        </mxCell>
        <mxCell id="Y9ipaWIojz4dRAJT3SAS-9" style="edgeStyle=orthogonalEdgeStyle;rounded=0;orthogonalLoop=1;jettySize=auto;html=1;entryX=0.5;entryY=0;entryDx=0;entryDy=0;fontFamily=Helvetica;fontSize=12;fontColor=default;strokeWidth=3;" parent="WIyWlLk6GJQsqaUBKTNV-1" source="16ZVw8iD22CcLfQWIQzx-14" target="16ZVw8iD22CcLfQWIQzx-76" edge="1">
          <mxGeometry relative="1" as="geometry" />
        </mxCell>
        <mxCell id="16ZVw8iD22CcLfQWIQzx-14" value="&lt;b style=&quot;font-size: 15px;&quot;&gt;Precipitation&lt;br&gt;Accumulation&lt;br&gt;&amp;gt;40.0 cm&lt;/b&gt;" style="rhombus;whiteSpace=wrap;html=1;movable=1;resizable=1;rotatable=1;deletable=1;editable=1;locked=0;connectable=1;labelBackgroundColor=none;rounded=0;strokeWidth=3;" parent="WIyWlLk6GJQsqaUBKTNV-1" vertex="1">
          <mxGeometry x="175" y="1780" width="120" height="130" as="geometry" />
        </mxCell>
        <mxCell id="c8ToxAZpXp-1ihNOXtx_-10" style="edgeStyle=orthogonalEdgeStyle;rounded=0;orthogonalLoop=1;jettySize=auto;html=1;strokeWidth=3;movable=0;resizable=0;rotatable=0;deletable=0;editable=0;locked=1;connectable=0;" parent="WIyWlLk6GJQsqaUBKTNV-1" source="3A6Bn0rhpXS9urCbKn0B-0" target="16ZVw8iD22CcLfQWIQzx-0" edge="1">
          <mxGeometry relative="1" as="geometry" />
        </mxCell>
        <mxCell id="3A6Bn0rhpXS9urCbKn0B-0" value="&lt;font size=&quot;1&quot; style=&quot;&quot;&gt;&lt;b style=&quot;font-size: 18px;&quot;&gt;Start&lt;/b&gt;&lt;/font&gt;" style="rounded=0;whiteSpace=wrap;html=1;movable=1;resizable=1;rotatable=1;deletable=1;editable=1;locked=0;connectable=1;labelBackgroundColor=none;strokeWidth=3;" parent="WIyWlLk6GJQsqaUBKTNV-1" vertex="1">
          <mxGeometry x="175" y="-220" width="120" height="60" as="geometry" />
        </mxCell>
        <mxCell id="3A6Bn0rhpXS9urCbKn0B-5" value="&lt;font style=&quot;font-size: 16px;&quot;&gt;&lt;b style=&quot;&quot;&gt;Yes&lt;/b&gt;&lt;/font&gt;" style="text;html=1;align=center;verticalAlign=middle;resizable=0;points=[];autosize=1;strokeColor=none;fillColor=none;rotation=270;labelBackgroundColor=none;rounded=0;movable=0;rotatable=0;deletable=0;editable=0;locked=1;connectable=0;" parent="WIyWlLk6GJQsqaUBKTNV-1" vertex="1">
          <mxGeometry x="685" y="460" width="50" height="30" as="geometry" />
        </mxCell>
        <mxCell id="3A6Bn0rhpXS9urCbKn0B-7" value="&lt;font style=&quot;font-size: 16px;&quot;&gt;&lt;b style=&quot;&quot;&gt;Yes&lt;/b&gt;&lt;/font&gt;" style="text;html=1;align=center;verticalAlign=middle;resizable=0;points=[];autosize=1;strokeColor=none;fillColor=none;rotation=270;labelBackgroundColor=none;rounded=0;movable=0;rotatable=0;deletable=0;editable=0;locked=1;connectable=0;" parent="WIyWlLk6GJQsqaUBKTNV-1" vertex="1">
          <mxGeometry x="470" y="460" width="50" height="30" as="geometry" />
        </mxCell>
        <mxCell id="3A6Bn0rhpXS9urCbKn0B-8" value="&lt;font style=&quot;font-size: 16px;&quot;&gt;&lt;b style=&quot;&quot;&gt;Yes&lt;/b&gt;&lt;/font&gt;" style="text;html=1;align=center;verticalAlign=middle;resizable=0;points=[];autosize=1;strokeColor=none;fillColor=none;rotation=0;labelBackgroundColor=none;rounded=0;movable=0;rotatable=0;deletable=0;editable=0;locked=1;connectable=0;" parent="WIyWlLk6GJQsqaUBKTNV-1" vertex="1">
          <mxGeometry x="960" y="390" width="50" height="30" as="geometry" />
        </mxCell>
        <mxCell id="3A6Bn0rhpXS9urCbKn0B-9" value="&lt;font style=&quot;font-size: 16px;&quot;&gt;&lt;b style=&quot;&quot;&gt;Yes&lt;/b&gt;&lt;/font&gt;" style="text;html=1;align=center;verticalAlign=middle;resizable=0;points=[];autosize=1;strokeColor=none;fillColor=none;rotation=0;labelBackgroundColor=none;rounded=0;movable=0;rotatable=0;deletable=0;editable=0;locked=1;connectable=0;" parent="WIyWlLk6GJQsqaUBKTNV-1" vertex="1">
          <mxGeometry x="310" y="390" width="50" height="30" as="geometry" />
        </mxCell>
        <mxCell id="3A6Bn0rhpXS9urCbKn0B-10" value="&lt;font style=&quot;font-size: 16px;&quot;&gt;&lt;b style=&quot;&quot;&gt;Yes&lt;/b&gt;&lt;/font&gt;" style="text;html=1;align=center;verticalAlign=middle;resizable=0;points=[];autosize=1;strokeColor=none;fillColor=none;rotation=0;labelBackgroundColor=none;rounded=0;movable=0;rotatable=0;deletable=0;editable=0;locked=1;connectable=0;" parent="WIyWlLk6GJQsqaUBKTNV-1" vertex="1">
          <mxGeometry x="60" y="198" width="50" height="30" as="geometry" />
        </mxCell>
        <mxCell id="3A6Bn0rhpXS9urCbKn0B-11" value="&lt;font style=&quot;font-size: 16px;&quot;&gt;&lt;b style=&quot;&quot;&gt;Yes&lt;/b&gt;&lt;/font&gt;" style="text;html=1;align=center;verticalAlign=middle;resizable=0;points=[];autosize=1;strokeColor=none;fillColor=none;rotation=-90;labelBackgroundColor=none;rounded=0;movable=0;rotatable=0;deletable=0;editable=0;locked=1;connectable=0;" parent="WIyWlLk6GJQsqaUBKTNV-1" vertex="1">
          <mxGeometry x="880" y="830" width="50" height="30" as="geometry" />
        </mxCell>
        <mxCell id="3A6Bn0rhpXS9urCbKn0B-12" value="&lt;font style=&quot;font-size: 16px;&quot;&gt;&lt;b style=&quot;&quot;&gt;Yes&lt;/b&gt;&lt;/font&gt;" style="text;html=1;align=center;verticalAlign=middle;resizable=0;points=[];autosize=1;strokeColor=none;fillColor=none;rotation=-90;labelBackgroundColor=none;rounded=0;movable=0;rotatable=0;deletable=0;editable=0;locked=1;connectable=0;" parent="WIyWlLk6GJQsqaUBKTNV-1" vertex="1">
          <mxGeometry x="665" y="830" width="50" height="30" as="geometry" />
        </mxCell>
        <mxCell id="3A6Bn0rhpXS9urCbKn0B-14" value="&lt;font style=&quot;font-size: 16px;&quot;&gt;&lt;b style=&quot;&quot;&gt;Yes&lt;/b&gt;&lt;/font&gt;" style="text;html=1;align=center;verticalAlign=middle;resizable=0;points=[];autosize=1;strokeColor=none;fillColor=none;rotation=270;labelBackgroundColor=none;rounded=0;movable=0;rotatable=0;deletable=0;editable=0;locked=1;connectable=0;" parent="WIyWlLk6GJQsqaUBKTNV-1" vertex="1">
          <mxGeometry x="460" y="830" width="50" height="30" as="geometry" />
        </mxCell>
        <mxCell id="3A6Bn0rhpXS9urCbKn0B-18" value="&lt;font style=&quot;font-size: 16px;&quot;&gt;&lt;b style=&quot;&quot;&gt;Yes&lt;/b&gt;&lt;/font&gt;" style="text;html=1;align=center;verticalAlign=middle;resizable=0;points=[];autosize=1;strokeColor=none;fillColor=none;rotation=0;labelBackgroundColor=none;rounded=0;movable=0;rotatable=0;deletable=0;editable=0;locked=1;connectable=0;" parent="WIyWlLk6GJQsqaUBKTNV-1" vertex="1">
          <mxGeometry x="310" y="745" width="50" height="30" as="geometry" />
        </mxCell>
        <mxCell id="3A6Bn0rhpXS9urCbKn0B-19" value="&lt;font style=&quot;font-size: 16px;&quot;&gt;&lt;b&gt;NO&lt;/b&gt;&lt;/font&gt;" style="text;html=1;align=center;verticalAlign=middle;resizable=0;points=[];autosize=1;strokeColor=none;fillColor=none;labelBackgroundColor=none;rounded=0;movable=0;rotatable=0;deletable=0;editable=0;locked=1;connectable=0;" parent="WIyWlLk6GJQsqaUBKTNV-1" vertex="1">
          <mxGeometry x="550" y="747.5" width="50" height="30" as="geometry" />
        </mxCell>
        <mxCell id="3A6Bn0rhpXS9urCbKn0B-20" value="&lt;font style=&quot;font-size: 16px;&quot;&gt;&lt;b&gt;NO&lt;/b&gt;&lt;/font&gt;" style="text;html=1;align=center;verticalAlign=middle;resizable=0;points=[];autosize=1;strokeColor=none;fillColor=none;rotation=-90;labelBackgroundColor=none;rounded=0;movable=0;rotatable=0;deletable=0;editable=0;locked=1;connectable=0;" parent="WIyWlLk6GJQsqaUBKTNV-1" vertex="1">
          <mxGeometry x="220" y="584.5" width="50" height="30" as="geometry" />
        </mxCell>
        <mxCell id="3A6Bn0rhpXS9urCbKn0B-21" value="&lt;font style=&quot;font-size: 16px;&quot;&gt;&lt;b&gt;NO&lt;/b&gt;&lt;/font&gt;" style="text;html=1;align=center;verticalAlign=middle;resizable=0;points=[];autosize=1;strokeColor=none;fillColor=none;rotation=0;labelBackgroundColor=none;rounded=0;movable=0;rotatable=0;deletable=0;editable=0;locked=1;connectable=0;" parent="WIyWlLk6GJQsqaUBKTNV-1" vertex="1">
          <mxGeometry x="755" y="747.5" width="50" height="30" as="geometry" />
        </mxCell>
        <mxCell id="3A6Bn0rhpXS9urCbKn0B-22" value="&lt;font style=&quot;font-size: 16px;&quot;&gt;&lt;b&gt;NO&lt;/b&gt;&lt;/font&gt;" style="text;html=1;align=center;verticalAlign=middle;resizable=0;points=[];autosize=1;strokeColor=none;fillColor=none;labelBackgroundColor=none;rounded=0;movable=0;rotatable=0;deletable=0;editable=0;locked=1;connectable=0;" parent="WIyWlLk6GJQsqaUBKTNV-1" vertex="1">
          <mxGeometry x="745" y="390" width="50" height="30" as="geometry" />
        </mxCell>
        <mxCell id="3A6Bn0rhpXS9urCbKn0B-23" value="&lt;font style=&quot;font-size: 16px;&quot;&gt;&lt;b&gt;NO&lt;/b&gt;&lt;/font&gt;" style="text;html=1;align=center;verticalAlign=middle;resizable=0;points=[];autosize=1;strokeColor=none;fillColor=none;rotation=-90;labelBackgroundColor=none;rounded=0;strokeWidth=0;movable=0;rotatable=0;deletable=0;editable=0;locked=1;connectable=0;" parent="WIyWlLk6GJQsqaUBKTNV-1" vertex="1">
          <mxGeometry x="220" y="310" width="50" height="30" as="geometry" />
        </mxCell>
        <mxCell id="3A6Bn0rhpXS9urCbKn0B-24" value="&lt;font style=&quot;font-size: 16px;&quot;&gt;&lt;b&gt;NO&lt;/b&gt;&lt;/font&gt;" style="text;html=1;align=center;verticalAlign=middle;resizable=0;points=[];autosize=1;strokeColor=none;fillColor=none;labelBackgroundColor=none;rounded=0;movable=0;rotatable=0;deletable=0;editable=0;locked=1;connectable=0;" parent="WIyWlLk6GJQsqaUBKTNV-1" vertex="1">
          <mxGeometry x="555" y="390" width="50" height="30" as="geometry" />
        </mxCell>
        <mxCell id="3A6Bn0rhpXS9urCbKn0B-27" value="&lt;font style=&quot;font-size: 16px;&quot;&gt;&lt;b&gt;NO&lt;/b&gt;&lt;/font&gt;" style="text;html=1;align=center;verticalAlign=middle;resizable=0;points=[];autosize=1;strokeColor=none;fillColor=none;labelBackgroundColor=none;rounded=0;movable=0;rotatable=0;deletable=0;editable=0;locked=1;connectable=0;" parent="WIyWlLk6GJQsqaUBKTNV-1" vertex="1">
          <mxGeometry x="745" y="1210" width="50" height="30" as="geometry" />
        </mxCell>
        <mxCell id="3A6Bn0rhpXS9urCbKn0B-28" value="&lt;font style=&quot;font-size: 16px;&quot;&gt;&lt;b&gt;NO&lt;/b&gt;&lt;/font&gt;" style="text;html=1;align=center;verticalAlign=middle;resizable=0;points=[];autosize=1;strokeColor=none;fillColor=none;rotation=270;labelBackgroundColor=none;rounded=0;movable=0;rotatable=0;deletable=0;editable=0;locked=1;connectable=0;" parent="WIyWlLk6GJQsqaUBKTNV-1" vertex="1">
          <mxGeometry x="230" y="1550" width="50" height="30" as="geometry" />
        </mxCell>
        <mxCell id="3A6Bn0rhpXS9urCbKn0B-30" value="&lt;font style=&quot;font-size: 16px;&quot;&gt;&lt;b&gt;NO&lt;/b&gt;&lt;/font&gt;" style="text;html=1;align=center;verticalAlign=middle;resizable=0;points=[];autosize=1;strokeColor=none;fillColor=none;labelBackgroundColor=none;rounded=0;movable=0;rotatable=0;deletable=0;editable=0;locked=1;connectable=0;" parent="WIyWlLk6GJQsqaUBKTNV-1" vertex="1">
          <mxGeometry x="545" y="1210" width="50" height="30" as="geometry" />
        </mxCell>
        <mxCell id="3A6Bn0rhpXS9urCbKn0B-52" value="&lt;font style=&quot;font-size: 16px;&quot;&gt;&lt;b style=&quot;&quot;&gt;Yes&lt;/b&gt;&lt;/font&gt;" style="text;html=1;align=center;verticalAlign=middle;resizable=0;points=[];autosize=1;strokeColor=none;fillColor=none;rotation=-90;labelBackgroundColor=none;rounded=0;movable=0;rotatable=0;deletable=0;editable=0;locked=1;connectable=0;" parent="WIyWlLk6GJQsqaUBKTNV-1" vertex="1">
          <mxGeometry x="665" y="1300" width="50" height="30" as="geometry" />
        </mxCell>
        <mxCell id="3A6Bn0rhpXS9urCbKn0B-53" value="&lt;font style=&quot;font-size: 16px;&quot;&gt;&lt;b style=&quot;&quot;&gt;Yes&lt;/b&gt;&lt;/font&gt;" style="text;html=1;align=center;verticalAlign=middle;resizable=0;points=[];autosize=1;strokeColor=none;fillColor=none;rotation=-90;labelBackgroundColor=none;rounded=0;movable=0;rotatable=0;deletable=0;editable=0;locked=1;connectable=0;" parent="WIyWlLk6GJQsqaUBKTNV-1" vertex="1">
          <mxGeometry x="460" y="1300" width="50" height="30" as="geometry" />
        </mxCell>
        <mxCell id="3A6Bn0rhpXS9urCbKn0B-56" value="&lt;font style=&quot;font-size: 16px;&quot;&gt;&lt;b style=&quot;&quot;&gt;Yes&lt;/b&gt;&lt;/font&gt;" style="text;html=1;align=center;verticalAlign=middle;resizable=0;points=[];autosize=1;strokeColor=none;fillColor=none;rotation=-90;labelBackgroundColor=none;rounded=0;movable=0;rotatable=0;deletable=0;editable=0;locked=1;connectable=0;" parent="WIyWlLk6GJQsqaUBKTNV-1" vertex="1">
          <mxGeometry x="220" y="2060" width="50" height="30" as="geometry" />
        </mxCell>
        <mxCell id="3A6Bn0rhpXS9urCbKn0B-58" value="&lt;font style=&quot;font-size: 16px;&quot;&gt;&lt;b style=&quot;&quot;&gt;Yes&lt;/b&gt;&lt;/font&gt;" style="text;html=1;align=center;verticalAlign=middle;resizable=0;points=[];autosize=1;strokeColor=none;fillColor=none;rotation=-90;labelBackgroundColor=none;rounded=0;movable=0;rotatable=0;deletable=0;editable=0;locked=1;connectable=0;" parent="WIyWlLk6GJQsqaUBKTNV-1" vertex="1">
          <mxGeometry x="840" y="1300" width="50" height="30" as="geometry" />
        </mxCell>
        <mxCell id="3A6Bn0rhpXS9urCbKn0B-65" value="&lt;font style=&quot;font-size: 16px;&quot;&gt;&lt;b&gt;NO&lt;/b&gt;&lt;/font&gt;" style="text;html=1;align=center;verticalAlign=middle;resizable=0;points=[];autosize=1;strokeColor=none;fillColor=none;rotation=270;labelBackgroundColor=none;rounded=0;movable=0;rotatable=0;deletable=0;editable=0;locked=1;connectable=0;" parent="WIyWlLk6GJQsqaUBKTNV-1" vertex="1">
          <mxGeometry x="230" y="980" width="50" height="30" as="geometry" />
        </mxCell>
        <mxCell id="3A6Bn0rhpXS9urCbKn0B-74" value="&lt;font style=&quot;font-size: 16px;&quot;&gt;&lt;b style=&quot;&quot;&gt;Yes&lt;/b&gt;&lt;/font&gt;" style="text;html=1;align=center;verticalAlign=middle;resizable=0;points=[];autosize=1;strokeColor=none;fillColor=none;rotation=0;labelBackgroundColor=none;rounded=0;movable=0;rotatable=0;deletable=0;editable=0;locked=1;connectable=0;" parent="WIyWlLk6GJQsqaUBKTNV-1" vertex="1">
          <mxGeometry x="310" y="1210" width="50" height="30" as="geometry" />
        </mxCell>
        <mxCell id="3A6Bn0rhpXS9urCbKn0B-94" style="edgeStyle=orthogonalEdgeStyle;rounded=0;orthogonalLoop=1;jettySize=auto;html=1;exitX=1;exitY=0.5;exitDx=0;exitDy=0;entryX=1;entryY=0.75;entryDx=0;entryDy=0;labelBackgroundColor=none;fontColor=default;" parent="WIyWlLk6GJQsqaUBKTNV-1" source="16ZVw8iD22CcLfQWIQzx-115" target="16ZVw8iD22CcLfQWIQzx-115" edge="1">
          <mxGeometry relative="1" as="geometry" />
        </mxCell>
        <mxCell id="I1R74PJlH07MJ75zzy9x-0" value="" style="shape=waypoint;sketch=0;size=6;pointerEvents=1;points=[];fillColor=none;resizable=0;rotatable=0;perimeter=centerPerimeter;snapToPoint=1;" vertex="1" parent="WIyWlLk6GJQsqaUBKTNV-1">
          <mxGeometry x="1390" y="2480" width="20" height="20" as="geometry" />
        </mxCell>
      </root>
    </mxGraphModel>
  </diagram>
</mxfile>
